<svg width="28" height="28" viewBox="0 0 28 28" fill="none" xmlns="http://www.w3.org/2000/svg">
<path d="M27.1759 13.9954C27.1759 15.6499 24.9693 16.8539 24.3736 18.2924C23.7558 19.7842 24.4432 22.1898 23.3203 23.3139C22.197 24.4385 19.7907 23.7534 18.3001 24.3722C16.8616 24.9693 15.6585 27.1763 14.0044 27.1763C12.3491 27.1763 11.1447 24.9695 9.70575 24.3731C8.21361 23.7548 5.80717 24.4408 4.683 23.3166C3.55886 22.1925 4.24497 19.7861 3.62662 18.294C3.03028 16.855 0.823517 15.6506 0.823517 13.9954C0.823517 12.3412 3.03051 11.1381 3.62762 9.69963C4.24641 8.20892 3.56138 5.80261 4.68597 4.67926C5.81009 3.55638 8.21567 4.24383 9.70742 3.62605C11.1459 3.03033 12.3499 0.823761 14.0044 0.823761C15.6578 0.823761 16.8605 3.03056 18.2985 3.62704C19.7889 4.24527 22.1943 3.5589 23.3176 4.68225C24.4409 5.80555 23.7545 8.21098 24.3726 9.70131C24.9691 11.1393 27.1759 12.342 27.1759 13.9954Z" fill="#f22323"/>
<path d="M27.1765 13.9954C27.1765 15.6482 24.9713 16.8541 24.3726 18.2919C23.757 19.7845 24.4442 22.1878 23.3185 23.3136C22.197 24.4393 19.7894 23.7521 18.301 24.3719C16.8632 24.9706 15.6573 27.1758 14.0045 27.1758C12.3474 27.1758 11.1458 24.9706 9.70376 24.3719C8.21537 23.7563 5.80783 24.4394 4.68209 23.3178C4.0623 22.6938 3.99477 21.6818 3.95267 20.6488C5.06575 20.8807 6.4951 20.6657 7.48595 21.0789C8.81834 21.6313 9.93569 23.6804 11.4705 23.6804C13.0052 23.6804 14.1183 21.6313 15.4507 21.0789C16.8337 20.5055 19.0642 21.1422 20.1056 20.1007C21.147 19.0551 20.5104 16.8288 21.0795 15.4458C21.6319 14.1092 23.6769 12.9961 23.6769 11.4613C23.6769 9.93079 21.6319 8.81344 21.0795 7.48107C20.6664 6.49024 20.8814 5.06088 20.6495 3.95197C21.6825 3.99412 22.6945 4.06159 23.3185 4.68139C24.44 5.80715 23.7528 8.2105 24.3726 9.70311C24.9671 11.1409 27.1765 12.3426 27.1765 13.9954Z" fill="#f22323"/>
<path d="M10.1513 5.05601C10.0908 5.05601 10.0333 5.02022 10.0085 4.96071C9.97595 4.88189 10.0134 4.79142 10.0922 4.75885C10.6425 4.53125 11.1586 4.04791 11.7048 3.53602C12.5044 2.78728 13.3312 2.01321 14.3437 2.01321C14.429 2.01321 14.4981 2.08238 14.4981 2.16763C14.4981 2.25287 14.429 2.32204 14.3437 2.32204C13.4532 2.32204 12.6717 3.05388 11.916 3.7616C11.3735 4.26947 10.8125 4.79504 10.2104 5.04435C10.1911 5.05239 10.171 5.05601 10.1513 5.05601Z" fill="white"/>
<path d="M2.22561 14.1498C2.14036 14.1498 2.0712 14.0807 2.0712 13.9954C2.0712 12.9588 2.86477 12.1123 3.6324 11.2932C4.15716 10.7335 4.65277 10.2047 4.8872 9.64052C4.91977 9.56171 5.01065 9.52471 5.08886 9.55688C5.16768 9.58985 5.20507 9.67993 5.1723 9.75874C4.91656 10.3752 4.37833 10.9494 3.85779 11.5047C3.13117 12.2796 2.38002 13.081 2.38002 13.9954C2.38002 14.0807 2.31086 14.1498 2.22561 14.1498Z" fill="white"/>
    <path d="M2.32129 2.32363C2.72582 1.9191 3.38168 1.9191 3.78621 2.32363L25.6966 24.234C26.1011 24.6385 26.1011 25.2944 25.6966 25.6989C25.2921 26.1035 24.6362 26.1035 24.2317 25.6989L2.32129 3.78854C1.91676 3.38402 1.91676 2.72815 2.32129 2.32363Z" fill="white" />
    <path d="M25.6787 2.30339C25.2742 1.89887 24.6183 1.89887 24.2138 2.30339L2.30339 24.2138C1.89887 24.6183 1.89887 25.2742 2.30339 25.6787C2.70792 26.0832 3.36379 26.0832 3.76831 25.6787L25.6787 3.76831C26.0832 3.36379 26.0832 2.70792 25.6787 2.30339Z" fill="white" />
</svg>
